<svg height="512pt" viewBox="0 -16 512.00013 512" width="512pt" xmlns="http://www.w3.org/2000/svg"><path d="m195 150h62c8.28125 0 15-6.714844 15-15s-6.71875-15-15-15h-62c-8.285156 0-15 6.714844-15 15s6.714844 15 15 15zm0 0"/><path d="m257 240h-62c-8.285156 0-15 6.714844-15 15 0 8.28125 6.714844 15 15 15h62c8.28125 0 15-6.71875 15-15 0-8.285156-6.71875-15-15-15zm0 0"/><path d="m257 330h-62c-8.285156 0-15 6.714844-15 14.996094 0 8.285156 6.714844 15 15 15h62c8.28125 0 15-6.714844 15-15 0-8.28125-6.71875-14.996094-15-14.996094zm0 0"/><path d="m485.972656 442.394531 25.820313-154.929687c1.519531-9.125-5.519531-17.464844-14.796875-17.464844h-123.175782l17.144532-240h46.03125c8.273437 0 15 6.730469 15 15v150c0 8.28125 6.71875 15 15 15 8.285156 0 15-6.71875 15-15v-150c0-24.8125-20.1875-45-45-45-21.269532 0-399.882813 0-421.996094 0-5.53125 0-10.617188 3.046875-13.226562 7.921875-2.609376 4.878906-2.324219 10.796875.746093 15.398437l57.886719 86.832032 7.851562 86.378906v.003906l19.324219 212.535156c2.121094 23.332032 21.386719 40.925782 44.8125 40.925782h197.582031c6.234376 17.769531 23.011719 30 42.433594 30h69.171875c22.089844 0 40.757813-15.8125 44.390625-37.601563zm-16.683594-82.398437h-124.585937l-10-59.996094h144.585937zm-426.261718-329.996094h317.859375l-10.714844 150h-253.292969l-6.941406-76.359375c-.226562-2.488281-1.070312-4.882813-2.457031-6.960937zm74.429687 376.355469-17.851562-196.355469h248.425781l-4.285156 60h-26.75c-9.25 0-16.320313 8.3125-14.792969 17.464844l22.085937 132.53125h-191.894531c-7.808593 0-14.230469-5.863282-14.9375-13.640625zm324.125 43.640625h-69.171875c-7.363281 0-13.585937-5.269532-14.796875-12.53125l-7.910156-47.46875h114.585937l-7.910156 47.46875c-1.210937 7.261718-7.433594 12.53125-14.796875 12.53125zm0 0"/></svg>