<?xml version="1.0" encoding="iso-8859-1"?>
<!-- Generator: Adobe Illustrator 19.0.0, SVG Export Plug-In . SVG Version: 6.00 Build 0)  -->
<svg version="1.1" id="Capa_1" xmlns="http://www.w3.org/2000/svg" xmlns:xlink="http://www.w3.org/1999/xlink" x="0px" y="0px"
	 viewBox="0 0 512 512" style="enable-background:new 0 0 512 512;" xml:space="preserve">
<g>
	<g>
		<path d="M430.535,6.263C426.758,2.265,421.5,0,416,0H96c-5.5,0-10.757,2.265-14.536,6.263c-3.778,3.997-5.743,9.374-5.433,14.865
			l26.667,472c0.599,10.591,9.361,18.872,19.968,18.872h266.667c10.607,0,19.37-8.281,19.968-18.872l19.382-343.058
			c0.005-0.07,0.008-0.14,0.012-0.209l7.273-128.733C436.279,15.637,434.314,10.26,430.535,6.263z M370.431,472H141.569
			l-16.27-287.974C139.09,188.18,155.67,191,177.329,191c44.127,0,67.293-11.779,87.733-22.172
			C283.875,159.262,300.123,151,334.664,151c24.354,0,39.786,4.187,53.337,10.003L370.431,472z M390.367,119.142
			c-14.541-4.788-32.134-8.142-55.702-8.142c-44.126,0-67.293,11.779-87.732,22.172C228.118,142.738,211.87,151,177.329,151
			c-25.13,0-40.696-4.433-54.489-10.499L117.162,40h277.676L390.367,119.142z"/>
	</g>
</g>
<g>
</g>
<g>
</g>
<g>
</g>
<g>
</g>
<g>
</g>
<g>
</g>
<g>
</g>
<g>
</g>
<g>
</g>
<g>
</g>
<g>
</g>
<g>
</g>
<g>
</g>
<g>
</g>
<g>
</g>
</svg>
