<?xml version="1.0" encoding="iso-8859-1"?>
<!-- Generator: Adobe Illustrator 19.0.0, SVG Export Plug-In . SVG Version: 6.00 Build 0)  -->
<svg version="1.1" id="Capa_1" xmlns="http://www.w3.org/2000/svg" xmlns:xlink="http://www.w3.org/1999/xlink" x="0px" y="0px"
	 viewBox="0 0 512.001 512.001" style="enable-background:new 0 0 512.001 512.001;" xml:space="preserve">
<g>
	<g>
		<path d="M376.501,96.402h-67.357l9.943-79.54c1.027-8.22-4.803-15.717-13.024-16.744c-8.214-1.032-15.717,4.803-16.745,13.023
			L278.91,96.402H135.501c-8.284,0-15,6.716-15,15v96.4c0,0.416,0.017,0.831,0.052,1.246l24.1,289.199
			c0.648,7.774,7.147,13.754,14.948,13.754h192.8c7.801,0,14.3-5.979,14.948-13.754l24.1-289.199
			c0.035-0.415,0.052-0.83,0.052-1.246v-96.4C391.501,103.117,384.785,96.402,376.501,96.402z M150.501,126.402H275.16l-8.3,66.4
			H150.501V126.402z M338.599,482.001H173.403l-21.6-259.199H263.11l-21.993,175.939c-1.027,8.22,4.803,15.717,13.024,16.744
			c0.631,0.079,1.259,0.118,1.879,0.118c7.455,0,13.917-5.553,14.866-13.142l22.458-179.66H360.2L338.599,482.001z M361.501,192.802
			h-64.408l8.3-66.4h56.108V192.802z"/>
	</g>
</g>
<g>
</g>
<g>
</g>
<g>
</g>
<g>
</g>
<g>
</g>
<g>
</g>
<g>
</g>
<g>
</g>
<g>
</g>
<g>
</g>
<g>
</g>
<g>
</g>
<g>
</g>
<g>
</g>
<g>
</g>
</svg>
