<?xml version="1.0" encoding="iso-8859-1"?>
<!-- Generator: Adobe Illustrator 18.0.0, SVG Export Plug-In . SVG Version: 6.00 Build 0)  -->
<!DOCTYPE svg PUBLIC "-//W3C//DTD SVG 1.1//EN" "http://www.w3.org/Graphics/SVG/1.1/DTD/svg11.dtd">
<svg version="1.1" id="Capa_1" xmlns="http://www.w3.org/2000/svg" xmlns:xlink="http://www.w3.org/1999/xlink" x="0px" y="0px"
	 viewBox="0 0 462 462" style="enable-background:new 0 0 462 462;" xml:space="preserve">
<path d="M304.912,91.434c20.9,0,37.904-17.004,37.904-37.904s-17.004-37.904-37.904-37.904h-42.516V10c0-5.523-4.478-10-10-10H196.7
	c-5.523,0-10,4.477-10,10v34.646h-18.985c-5.523,0-10,4.477-10,10v41.807l-24.862,19.827c-8.687,6.928-13.669,17.274-13.669,28.385
	v280.527c0,20.295,16.511,36.807,36.807,36.807h137.116c20.295,0,36.807-16.511,36.807-36.807V144.667
	c0-11.111-4.982-21.457-13.669-28.385l-24.862-19.828v-5.019H304.912z M304.912,35.626c9.872,0,17.904,8.032,17.904,17.904
	s-8.032,17.904-17.904,17.904h-13.53V54.646c0-5.523-4.478-10-10-10h-18.985v-9.02H304.912z M206.7,20h35.696v24.646H206.7V20z
	 M177.715,64.646h93.667v26.623h-93.667V64.646z M309.913,144.667v26.106h-96.526c-5.523,0-10,4.477-10,10s4.477,10,10,10h96.526
	v31.064h-96.526c-5.523,0-10,4.477-10,10s4.477,10,10,10h96.526v31.064h-96.526c-5.523,0-10,4.477-10,10s4.477,10,10,10h96.526
	v31.064h-96.526c-5.523,0-10,4.477-10,10s4.477,10,10,10h96.526v31.064h-96.526c-5.523,0-10,4.477-10,10s4.477,10,10,10h96.526
	v30.163c0,9.267-7.539,16.807-16.807,16.807H155.99c-9.267,0-16.807-7.54-16.807-16.807V395.03h27.815c5.523,0,10-4.477,10-10
	s-4.477-10-10-10h-27.815v-31.064h27.815c5.523,0,10-4.477,10-10s-4.477-10-10-10h-27.815v-31.064h27.815c5.523,0,10-4.477,10-10
	s-4.477-10-10-10h-27.815v-31.064h27.815c5.523,0,10-4.477,10-10s-4.477-10-10-10h-27.815v-31.064h27.815c5.523,0,10-4.477,10-10
	s-4.477-10-10-10h-27.815v-26.106c0-4.991,2.238-9.638,6.139-12.749l25.891-20.648h106.669l25.891,20.648
	C307.675,135.029,309.913,139.676,309.913,144.667z"/>
<g>
</g>
<g>
</g>
<g>
</g>
<g>
</g>
<g>
</g>
<g>
</g>
<g>
</g>
<g>
</g>
<g>
</g>
<g>
</g>
<g>
</g>
<g>
</g>
<g>
</g>
<g>
</g>
<g>
</g>
</svg>
