<?xml version="1.0" encoding="iso-8859-1"?>
<!-- Generator: Adobe Illustrator 18.0.0, SVG Export Plug-In . SVG Version: 6.00 Build 0)  -->
<!DOCTYPE svg PUBLIC "-//W3C//DTD SVG 1.1//EN" "http://www.w3.org/Graphics/SVG/1.1/DTD/svg11.dtd">
<svg version="1.1" id="Capa_1" xmlns="http://www.w3.org/2000/svg" xmlns:xlink="http://www.w3.org/1999/xlink" x="0px" y="0px"
	 viewBox="0 0 297 297" style="enable-background:new 0 0 297 297;" xml:space="preserve">
<path d="M251.341,55.415c-1.987-2.315-4.886-3.647-7.938-3.647H136.052l-3.004-42.055C132.657,4.24,128.103,0,122.617,0H53.597
	c-5.775,0-10.458,4.683-10.458,10.458s4.683,10.458,10.458,10.458h59.283l2.203,30.852H70.852c-3.052,0-5.95,1.332-7.937,3.647
	c-1.986,2.316-2.862,5.384-2.399,8.399l34.51,224.318c0.786,5.102,5.175,8.867,10.337,8.867h103.531
	c5.161,0,9.551-3.766,10.336-8.867L253.74,63.814C254.203,60.799,253.327,57.731,251.341,55.415z M231.214,72.683l-12.71,82.616
	h-75.057l-5.901-82.616H231.214z M116.577,72.683l5.901,82.616H95.751l-12.71-82.616H116.577z M199.922,276.085h-85.588
	l-15.365-99.871h25.004l5.469,76.563c0.393,5.507,4.983,9.713,10.42,9.713c0.25,0,0.502-0.009,0.757-0.027
	c5.761-0.411,10.097-5.415,9.686-11.176l-5.363-75.073h70.346L199.922,276.085z"/>
<g>
</g>
<g>
</g>
<g>
</g>
<g>
</g>
<g>
</g>
<g>
</g>
<g>
</g>
<g>
</g>
<g>
</g>
<g>
</g>
<g>
</g>
<g>
</g>
<g>
</g>
<g>
</g>
<g>
</g>
</svg>
